PathFileType	3	(X/Y/Z)	E:\ViconData\BIOM9541 2025\Week 7\Wed1100\Hanif deep squat 5 Squat 01.trc
DataRate	CameraRate	NumFrames	NumMarkers	Units	OrigDataRate	OrigDataStartFrame	OrigNumFrames
200.0	200.0	6	19	mm	200.0	213	1698	
Frame#	Time	C7			CLAV			RBAK			LASI			RASI			LPSI			RPSI			LTHI			LKNE			LTIB			LANK			LHEE			LTOE			RTHI			RKNE			RTIB			RANK			RHEE			RTOE			
		X1	Y1	Z1	X2	Y2	Z2	X3	Y3	Z3	X4	Y4	Z4	X5	Y5	Z5	X6	Y6	Z6	X7	Y7	Z7	X8	Y8	Z8	X9	Y9	Z9	X10	Y10	Z10	X11	Y11	Z11	X12	Y12	Z12	X13	Y13	Z13	X14	Y14	Z14	X15	Y15	Z15	X16	Y16	Z16	X17	Y17	Z17	X18	Y18	Z18	X19	Y19	Z19	
213	1.06	308.31058	969.69751	-1209.2224	167.61665	882.83862	-1204.3499	333.14844	892.76373	-1357.9811	284.66263	535.12726	-1085.7386	276.1814	553.3972	-1346.7308	449.7673	604.7906	-1169.9637	449.4083	602.7135	-1243.8492	185.35887	439.06104	-919.49683	91.601723	349.86929	-872.46503	203.56319	179.77292	-913.41638	295.85095	65.463867	-979.82812	316.58038	56.171078	-1039.6169	158.60823	38.693451	-943.66211	312.58734	511.29776	-1428.7307	97.270027	337.50183	-1540.2727	133.27704	262.37494	-1533.0569	288.00876	69.804008	-1432.8549	312.41846	54.169575	-1358.8496	162.86388	40.543854	-1467.6259	
214	1.065	308.01895	965.42731	-1209.3752	166.91402	878.58765	-1204.2294	332.98212	888.67651	-1358.1821	285.05972	531.26697	-1085.8517	276.7748	549.5972	-1346.9463	450.2036	600.7292	-1169.8954	449.8918	598.456	-1243.8234	185.66109	437.85062	-919.49084	91.364761	349.47946	-872.10242	203.35352	179.5768	-913.30145	295.81323	65.432701	-979.8197	316.55539	56.240051	-1039.6539	158.59975	38.694454	-943.65424	313.54593	508.63684	-1428.7106	97.074348	337.08948	-1540.9531	132.96602	261.97305	-1533.4772	287.95511	69.778206	-1432.8361	312.28149	54.230797	-1358.6943	162.62337	40.534569	-1467.5616	
215	1.07	307.72757	961.20612	-1209.4771	166.84122	874.22455	-1204.5811	332.64191	884.47095	-1358.3473	285.43216	527.43268	-1085.9521	277.3135	545.8358	-1347.1799	450.7406	596.6428	-1170.0078	450.4951	594.4294	-1243.8434	185.92924	436.66019	-919.56958	91.132866	349.2287	-871.71942	203.20749	179.46118	-913.21338	295.77954	65.398804	-979.90045	316.56693	56.216167	-1039.6885	158.57938	38.658386	-943.6825	314.53537	505.90695	-1428.6793	96.827095	336.56323	-1541.5758	132.70906	261.54187	-1533.9421	287.95401	69.701477	-1432.8162	312.22839	54.252689	-1358.6814	162.84355	40.485821	-1467.6947	
216	1.075	307.4527	957.05054	-1209.5554	166.72644	869.91223	-1205.0186	332.36893	880.41571	-1358.4833	285.87787	523.63312	-1086.1212	277.7761	542.1825	-1347.4106	451.2081	592.6247	-1170.0114	451.0316	590.5403	-1243.8251	186.2458	435.54547	-919.59784	90.955742	349.03537	-871.41376	203.05658	179.37186	-913.13232	295.79187	65.335648	-979.98444	316.56134	56.197594	-1039.7345	158.58907	38.622372	-943.69727	315.46106	503.17819	-1428.4972	96.600998	336.04684	-1542.1956	132.4149	261.0773	-1534.3354	287.93652	69.599823	-1432.7841	312.17361	54.304081	-1358.6926	162.6628	40.397583	-1467.5808	
217	1.08	307.19418	952.96735	-1209.6387	166.8123	865.13629	-1204.8589	332.10764	876.29608	-1358.6174	286.20248	519.85431	-1086.2815	278.248	538.557	-1347.5918	451.658	588.6853	-1169.9725	451.4996	586.4957	-1243.7916	186.58438	434.41122	-919.6626	90.838165	348.77509	-871.17474	202.89301	179.23601	-913.06854	295.7948	65.361679	-980.01843	316.51962	56.199558	-1039.7526	158.60107	38.652809	-943.7641	316.3074	500.57809	-1428.4545	96.411491	335.64035	-1542.7758	132.13223	260.76016	-1534.6748	287.8855	69.582954	-1432.7723	312.1402	54.342182	-1358.6366	162.61934	40.400379	-1467.6195	
218	1.085	306.97925	948.94208	-1209.7235	166.14525	861.18811	-1204.5514	331.76334	872.2832	-1358.7413	286.49072	516.01099	-1086.2001	278.6629	535.0515	-1347.7723	452.0974	584.7127	-1169.772	451.8932	582.4915	-1243.722	186.98363	433.323	-919.67572	90.716278	348.49973	-870.92499	202.69313	179.11227	-912.9505	295.71939	65.360023	-980.00494	316.49139	56.276672	-1039.8071	158.57082	38.65778	-943.64142	317.07031	498.11798	-1428.3547	96.133934	335.28659	-1543.3325	131.88911	260.4957	-1535.0199	287.82138	69.642311	-1432.7826	312.05328	54.418114	-1358.5157	162.58267	40.382854	-1467.5802	
